<mxfile host="Electron" agent="Mozilla/5.0 (Macintosh; Intel Mac OS X 10_15_7) AppleWebKit/537.36 (KHTML, like Gecko) draw.io/26.2.2 Chrome/134.0.6998.178 Electron/35.1.2 Safari/537.36" version="26.2.2">
  <diagram name="Page-1" id="52a04d89-c75d-2922-d76d-85b35f80e030">
    <mxGraphModel dx="1275" dy="874" grid="1" gridSize="10" guides="1" tooltips="1" connect="1" arrows="1" fold="1" page="1" pageScale="1" pageWidth="1100" pageHeight="850" background="none" math="0" shadow="0">
      <root>
        <mxCell id="0" />
        <mxCell id="1" parent="0" />
        <mxCell id="qUcSNbE8Fe3txcthPlGP-5" value="registers user&amp;nbsp;" style="edgeStyle=orthogonalEdgeStyle;rounded=1;orthogonalLoop=1;jettySize=auto;html=1;entryX=0.25;entryY=0;entryDx=0;entryDy=0;exitX=0;exitY=0;exitDx=0;exitDy=0;curved=0;" edge="1" parent="1" source="qUcSNbE8Fe3txcthPlGP-19" target="qUcSNbE8Fe3txcthPlGP-4">
          <mxGeometry relative="1" as="geometry">
            <mxPoint x="-55" y="405" as="sourcePoint" />
          </mxGeometry>
        </mxCell>
        <mxCell id="qUcSNbE8Fe3txcthPlGP-6" value="logs in&amp;nbsp;&lt;div&gt;securely&lt;/div&gt;" style="edgeStyle=orthogonalEdgeStyle;rounded=1;orthogonalLoop=1;jettySize=auto;html=1;entryX=0.5;entryY=0;entryDx=0;entryDy=0;exitX=0;exitY=0.25;exitDx=0;exitDy=0;curved=0;" edge="1" parent="1" source="qUcSNbE8Fe3txcthPlGP-19" target="qUcSNbE8Fe3txcthPlGP-4">
          <mxGeometry relative="1" as="geometry">
            <mxPoint x="-5" y="405" as="sourcePoint" />
            <mxPoint as="offset" />
          </mxGeometry>
        </mxCell>
        <mxCell id="qUcSNbE8Fe3txcthPlGP-8" value="manage&amp;nbsp;&lt;div&gt;user profile&lt;/div&gt;" style="edgeStyle=orthogonalEdgeStyle;rounded=1;orthogonalLoop=1;jettySize=auto;html=1;exitX=0;exitY=0.5;exitDx=0;exitDy=0;entryX=0.75;entryY=0;entryDx=0;entryDy=0;curved=0;" edge="1" parent="1" source="qUcSNbE8Fe3txcthPlGP-19" target="qUcSNbE8Fe3txcthPlGP-4">
          <mxGeometry x="0.1646" relative="1" as="geometry">
            <mxPoint x="170" y="260" as="sourcePoint" />
            <mxPoint as="offset" />
          </mxGeometry>
        </mxCell>
        <mxCell id="qUcSNbE8Fe3txcthPlGP-4" value="user management process" style="html=1;dashed=0;whiteSpace=wrap;sketch=1;curveFitting=1;jiggle=2;" vertex="1" parent="1">
          <mxGeometry x="20" y="445" width="100" height="50" as="geometry" />
        </mxCell>
        <mxCell id="qUcSNbE8Fe3txcthPlGP-12" value="create&lt;div&gt;property listing&lt;/div&gt;" style="edgeStyle=orthogonalEdgeStyle;rounded=1;orthogonalLoop=1;jettySize=auto;html=1;entryX=0.25;entryY=0;entryDx=0;entryDy=0;exitX=0;exitY=0.75;exitDx=0;exitDy=0;curved=0;" edge="1" parent="1" source="qUcSNbE8Fe3txcthPlGP-19" target="qUcSNbE8Fe3txcthPlGP-9">
          <mxGeometry relative="1" as="geometry" />
        </mxCell>
        <mxCell id="qUcSNbE8Fe3txcthPlGP-9" value="property management process" style="html=1;dashed=0;whiteSpace=wrap;sketch=1;curveFitting=1;jiggle=2;" vertex="1" parent="1">
          <mxGeometry x="140" y="445" width="100" height="50" as="geometry" />
        </mxCell>
        <mxCell id="qUcSNbE8Fe3txcthPlGP-15" style="edgeStyle=orthogonalEdgeStyle;rounded=1;orthogonalLoop=1;jettySize=auto;html=1;exitX=0.5;exitY=0;exitDx=0;exitDy=0;entryX=0.5;entryY=1;entryDx=0;entryDy=0;curved=0;jumpStyle=arc;" edge="1" parent="1" source="qUcSNbE8Fe3txcthPlGP-10" target="qUcSNbE8Fe3txcthPlGP-4">
          <mxGeometry relative="1" as="geometry" />
        </mxCell>
        <mxCell id="qUcSNbE8Fe3txcthPlGP-48" style="edgeStyle=orthogonalEdgeStyle;rounded=1;orthogonalLoop=1;jettySize=auto;html=1;entryX=1;entryY=1;entryDx=0;entryDy=0;jumpStyle=arc;curved=0;exitX=0.75;exitY=1;exitDx=0;exitDy=0;" edge="1" parent="1" source="qUcSNbE8Fe3txcthPlGP-10" target="qUcSNbE8Fe3txcthPlGP-47">
          <mxGeometry relative="1" as="geometry">
            <Array as="points">
              <mxPoint x="95" y="710" />
              <mxPoint x="890" y="710" />
            </Array>
          </mxGeometry>
        </mxCell>
        <mxCell id="qUcSNbE8Fe3txcthPlGP-64" style="edgeStyle=orthogonalEdgeStyle;rounded=1;orthogonalLoop=1;jettySize=auto;html=1;entryX=0.25;entryY=1;entryDx=0;entryDy=0;exitX=1;exitY=1;exitDx=0;exitDy=0;curved=0;jumpStyle=arc;" edge="1" parent="1" source="qUcSNbE8Fe3txcthPlGP-10" target="qUcSNbE8Fe3txcthPlGP-25">
          <mxGeometry relative="1" as="geometry">
            <Array as="points">
              <mxPoint x="120" y="670" />
              <mxPoint x="395" y="670" />
            </Array>
          </mxGeometry>
        </mxCell>
        <mxCell id="qUcSNbE8Fe3txcthPlGP-68" style="edgeStyle=orthogonalEdgeStyle;rounded=1;orthogonalLoop=1;jettySize=auto;html=1;entryX=0.25;entryY=1;entryDx=0;entryDy=0;exitX=0.75;exitY=0;exitDx=0;exitDy=0;curved=0;" edge="1" parent="1" source="qUcSNbE8Fe3txcthPlGP-10" target="qUcSNbE8Fe3txcthPlGP-9">
          <mxGeometry relative="1" as="geometry">
            <Array as="points">
              <mxPoint x="95" y="550" />
              <mxPoint x="165" y="550" />
            </Array>
          </mxGeometry>
        </mxCell>
        <mxCell id="qUcSNbE8Fe3txcthPlGP-70" style="edgeStyle=orthogonalEdgeStyle;rounded=1;orthogonalLoop=1;jettySize=auto;html=1;entryX=0.25;entryY=1;entryDx=0;entryDy=0;curved=0;jumpStyle=arc;" edge="1" parent="1" source="qUcSNbE8Fe3txcthPlGP-10" target="qUcSNbE8Fe3txcthPlGP-53">
          <mxGeometry relative="1" as="geometry">
            <Array as="points">
              <mxPoint x="70" y="750" />
              <mxPoint x="965" y="750" />
            </Array>
          </mxGeometry>
        </mxCell>
        <mxCell id="qUcSNbE8Fe3txcthPlGP-10" value="user store" style="html=1;dashed=0;whiteSpace=wrap;shape=partialRectangle;right=0;sketch=1;curveFitting=1;jiggle=2;" vertex="1" parent="1">
          <mxGeometry x="20" y="605" width="100" height="30" as="geometry" />
        </mxCell>
        <mxCell id="qUcSNbE8Fe3txcthPlGP-13" style="edgeStyle=orthogonalEdgeStyle;rounded=1;orthogonalLoop=1;jettySize=auto;html=1;entryX=0.5;entryY=1;entryDx=0;entryDy=0;exitX=0.25;exitY=0;exitDx=0;exitDy=0;curved=0;jumpStyle=arc;" edge="1" parent="1" source="qUcSNbE8Fe3txcthPlGP-11" target="qUcSNbE8Fe3txcthPlGP-9">
          <mxGeometry relative="1" as="geometry" />
        </mxCell>
        <mxCell id="qUcSNbE8Fe3txcthPlGP-24" style="edgeStyle=orthogonalEdgeStyle;rounded=1;orthogonalLoop=1;jettySize=auto;html=1;entryX=0.25;entryY=1;entryDx=0;entryDy=0;curved=0;jumpStyle=arc;" edge="1" parent="1" source="qUcSNbE8Fe3txcthPlGP-11" target="qUcSNbE8Fe3txcthPlGP-22">
          <mxGeometry relative="1" as="geometry" />
        </mxCell>
        <mxCell id="qUcSNbE8Fe3txcthPlGP-42" style="edgeStyle=orthogonalEdgeStyle;rounded=1;orthogonalLoop=1;jettySize=auto;html=1;entryX=0.25;entryY=1;entryDx=0;entryDy=0;exitX=1;exitY=0;exitDx=0;exitDy=0;curved=0;jumpStyle=arc;" edge="1" parent="1" source="qUcSNbE8Fe3txcthPlGP-11" target="qUcSNbE8Fe3txcthPlGP-38">
          <mxGeometry relative="1" as="geometry">
            <Array as="points">
              <mxPoint x="300" y="605" />
              <mxPoint x="300" y="550" />
              <mxPoint x="655" y="550" />
            </Array>
          </mxGeometry>
        </mxCell>
        <mxCell id="qUcSNbE8Fe3txcthPlGP-49" style="edgeStyle=orthogonalEdgeStyle;rounded=1;orthogonalLoop=1;jettySize=auto;html=1;entryX=0.75;entryY=1;entryDx=0;entryDy=0;curved=0;jumpStyle=arc;exitX=0.5;exitY=1;exitDx=0;exitDy=0;" edge="1" parent="1" source="qUcSNbE8Fe3txcthPlGP-11" target="qUcSNbE8Fe3txcthPlGP-47">
          <mxGeometry relative="1" as="geometry">
            <Array as="points">
              <mxPoint x="249" y="690" />
              <mxPoint x="865" y="690" />
            </Array>
          </mxGeometry>
        </mxCell>
        <mxCell id="qUcSNbE8Fe3txcthPlGP-65" style="edgeStyle=orthogonalEdgeStyle;rounded=1;orthogonalLoop=1;jettySize=auto;html=1;exitX=0.75;exitY=0;exitDx=0;exitDy=0;jumpStyle=arc;curved=0;" edge="1" parent="1" source="qUcSNbE8Fe3txcthPlGP-11" target="qUcSNbE8Fe3txcthPlGP-25">
          <mxGeometry relative="1" as="geometry">
            <Array as="points">
              <mxPoint x="274" y="580" />
              <mxPoint x="420" y="580" />
            </Array>
          </mxGeometry>
        </mxCell>
        <mxCell id="qUcSNbE8Fe3txcthPlGP-11" value="property store" style="html=1;dashed=0;whiteSpace=wrap;shape=partialRectangle;right=0;sketch=1;curveFitting=1;jiggle=2;" vertex="1" parent="1">
          <mxGeometry x="199" y="605" width="100" height="30" as="geometry" />
        </mxCell>
        <mxCell id="qUcSNbE8Fe3txcthPlGP-23" value="search and&amp;nbsp;&lt;div&gt;filter&lt;/div&gt;" style="edgeStyle=orthogonalEdgeStyle;rounded=1;orthogonalLoop=1;jettySize=auto;html=1;entryX=0.5;entryY=0;entryDx=0;entryDy=0;exitX=0.25;exitY=1;exitDx=0;exitDy=0;curved=0;" edge="1" parent="1" source="qUcSNbE8Fe3txcthPlGP-19" target="qUcSNbE8Fe3txcthPlGP-22">
          <mxGeometry relative="1" as="geometry" />
        </mxCell>
        <mxCell id="qUcSNbE8Fe3txcthPlGP-28" value="create&amp;nbsp;&lt;div&gt;booking&lt;/div&gt;" style="edgeStyle=orthogonalEdgeStyle;rounded=1;orthogonalLoop=1;jettySize=auto;html=1;entryX=0.25;entryY=0;entryDx=0;entryDy=0;exitX=0.5;exitY=1;exitDx=0;exitDy=0;curved=0;" edge="1" parent="1" source="qUcSNbE8Fe3txcthPlGP-19" target="qUcSNbE8Fe3txcthPlGP-25">
          <mxGeometry relative="1" as="geometry" />
        </mxCell>
        <mxCell id="qUcSNbE8Fe3txcthPlGP-29" value="cancel&amp;nbsp;&lt;div&gt;booking&lt;/div&gt;" style="edgeStyle=orthogonalEdgeStyle;rounded=1;orthogonalLoop=1;jettySize=auto;html=1;entryX=0.5;entryY=0;entryDx=0;entryDy=0;exitX=0.75;exitY=1;exitDx=0;exitDy=0;curved=0;" edge="1" parent="1" source="qUcSNbE8Fe3txcthPlGP-19" target="qUcSNbE8Fe3txcthPlGP-25">
          <mxGeometry x="-0.1923" relative="1" as="geometry">
            <Array as="points">
              <mxPoint x="369" y="320" />
              <mxPoint x="420" y="320" />
            </Array>
            <mxPoint as="offset" />
          </mxGeometry>
        </mxCell>
        <mxCell id="qUcSNbE8Fe3txcthPlGP-30" value="confirm&amp;nbsp;&lt;div&gt;booking&lt;div&gt;status&lt;/div&gt;&lt;/div&gt;" style="edgeStyle=orthogonalEdgeStyle;rounded=1;orthogonalLoop=1;jettySize=auto;html=1;entryX=0.75;entryY=0;entryDx=0;entryDy=0;exitX=1;exitY=1;exitDx=0;exitDy=0;curved=0;" edge="1" parent="1" source="qUcSNbE8Fe3txcthPlGP-19" target="qUcSNbE8Fe3txcthPlGP-25">
          <mxGeometry x="0.2549" relative="1" as="geometry">
            <Array as="points">
              <mxPoint x="445" y="255" />
            </Array>
            <mxPoint as="offset" />
          </mxGeometry>
        </mxCell>
        <mxCell id="qUcSNbE8Fe3txcthPlGP-35" value="make upfront&lt;div&gt;payment&lt;/div&gt;" style="edgeStyle=orthogonalEdgeStyle;rounded=1;orthogonalLoop=1;jettySize=auto;html=1;entryX=0.25;entryY=0;entryDx=0;entryDy=0;exitX=1;exitY=0.75;exitDx=0;exitDy=0;curved=0;" edge="1" parent="1" source="qUcSNbE8Fe3txcthPlGP-19" target="qUcSNbE8Fe3txcthPlGP-32">
          <mxGeometry x="0.3824" relative="1" as="geometry">
            <mxPoint as="offset" />
          </mxGeometry>
        </mxCell>
        <mxCell id="qUcSNbE8Fe3txcthPlGP-36" value="automatic&lt;div&gt;payouts&lt;/div&gt;" style="edgeStyle=orthogonalEdgeStyle;rounded=1;orthogonalLoop=1;jettySize=auto;html=1;entryX=0.5;entryY=0;entryDx=0;entryDy=0;exitX=1;exitY=0.5;exitDx=0;exitDy=0;curved=0;" edge="1" parent="1" source="qUcSNbE8Fe3txcthPlGP-19" target="qUcSNbE8Fe3txcthPlGP-32">
          <mxGeometry x="0.1316" relative="1" as="geometry">
            <mxPoint as="offset" />
          </mxGeometry>
        </mxCell>
        <mxCell id="qUcSNbE8Fe3txcthPlGP-37" value="support&lt;div&gt;multi&amp;nbsp;&lt;/div&gt;&lt;div&gt;currencies&lt;/div&gt;" style="edgeStyle=orthogonalEdgeStyle;rounded=1;orthogonalLoop=1;jettySize=auto;html=1;entryX=0.75;entryY=0;entryDx=0;entryDy=0;exitX=1;exitY=0.25;exitDx=0;exitDy=0;curved=0;" edge="1" parent="1" source="qUcSNbE8Fe3txcthPlGP-19" target="qUcSNbE8Fe3txcthPlGP-32">
          <mxGeometry relative="1" as="geometry" />
        </mxCell>
        <mxCell id="qUcSNbE8Fe3txcthPlGP-43" value="post reviews&lt;div&gt;and ratings&lt;/div&gt;" style="edgeStyle=orthogonalEdgeStyle;rounded=1;orthogonalLoop=1;jettySize=auto;html=1;entryX=0.25;entryY=0;entryDx=0;entryDy=0;exitX=1;exitY=0;exitDx=0;exitDy=0;curved=0;" edge="1" parent="1" source="qUcSNbE8Fe3txcthPlGP-19" target="qUcSNbE8Fe3txcthPlGP-38">
          <mxGeometry x="0.2072" relative="1" as="geometry">
            <mxPoint as="offset" />
          </mxGeometry>
        </mxCell>
        <mxCell id="qUcSNbE8Fe3txcthPlGP-44" value="respond to&amp;nbsp;&lt;div&gt;reviews&lt;/div&gt;" style="edgeStyle=orthogonalEdgeStyle;rounded=1;orthogonalLoop=1;jettySize=auto;html=1;entryX=0.5;entryY=0;entryDx=0;entryDy=0;exitX=0.75;exitY=0;exitDx=0;exitDy=0;curved=0;" edge="1" parent="1" source="qUcSNbE8Fe3txcthPlGP-19" target="qUcSNbE8Fe3txcthPlGP-38">
          <mxGeometry x="0.4531" relative="1" as="geometry">
            <Array as="points">
              <mxPoint x="360" y="160" />
              <mxPoint x="680" y="160" />
            </Array>
            <mxPoint as="offset" />
          </mxGeometry>
        </mxCell>
        <mxCell id="qUcSNbE8Fe3txcthPlGP-45" value="link reviews&lt;div&gt;to bookings&lt;/div&gt;" style="edgeStyle=orthogonalEdgeStyle;rounded=1;orthogonalLoop=1;jettySize=auto;html=1;entryX=0.75;entryY=0;entryDx=0;entryDy=0;exitX=0;exitY=0.5;exitDx=0;exitDy=0;curved=0;" edge="1" parent="1" source="qUcSNbE8Fe3txcthPlGP-31" target="qUcSNbE8Fe3txcthPlGP-38">
          <mxGeometry relative="1" as="geometry">
            <Array as="points">
              <mxPoint x="705" y="225" />
            </Array>
          </mxGeometry>
        </mxCell>
        <mxCell id="qUcSNbE8Fe3txcthPlGP-19" value="User" style="rounded=1;whiteSpace=wrap;html=1;sketch=1;curveFitting=1;jiggle=2;" vertex="1" parent="1">
          <mxGeometry x="279" y="195" width="120" height="60" as="geometry" />
        </mxCell>
        <mxCell id="qUcSNbE8Fe3txcthPlGP-21" value="modify&lt;div&gt;property listing&lt;/div&gt;" style="edgeStyle=orthogonalEdgeStyle;rounded=1;orthogonalLoop=1;jettySize=auto;html=1;entryX=0.75;entryY=0;entryDx=0;entryDy=0;exitX=0;exitY=1;exitDx=0;exitDy=0;curved=0;" edge="1" parent="1" source="qUcSNbE8Fe3txcthPlGP-19" target="qUcSNbE8Fe3txcthPlGP-9">
          <mxGeometry relative="1" as="geometry">
            <mxPoint x="210" y="285" as="sourcePoint" />
            <mxPoint x="185" y="455" as="targetPoint" />
            <Array as="points">
              <mxPoint x="215" y="255" />
            </Array>
          </mxGeometry>
        </mxCell>
        <mxCell id="qUcSNbE8Fe3txcthPlGP-22" value="search and filter process" style="html=1;dashed=0;whiteSpace=wrap;sketch=1;curveFitting=1;jiggle=2;" vertex="1" parent="1">
          <mxGeometry x="253" y="445" width="100" height="50" as="geometry" />
        </mxCell>
        <mxCell id="qUcSNbE8Fe3txcthPlGP-25" value="booking management process" style="html=1;dashed=0;whiteSpace=wrap;sketch=1;curveFitting=1;jiggle=2;" vertex="1" parent="1">
          <mxGeometry x="370" y="445" width="100" height="50" as="geometry" />
        </mxCell>
        <mxCell id="qUcSNbE8Fe3txcthPlGP-27" style="edgeStyle=orthogonalEdgeStyle;rounded=1;orthogonalLoop=1;jettySize=auto;html=1;entryX=0.75;entryY=1;entryDx=0;entryDy=0;jumpStyle=arc;curved=0;exitX=0.25;exitY=0;exitDx=0;exitDy=0;" edge="1" parent="1" source="qUcSNbE8Fe3txcthPlGP-26" target="qUcSNbE8Fe3txcthPlGP-25">
          <mxGeometry relative="1" as="geometry" />
        </mxCell>
        <mxCell id="qUcSNbE8Fe3txcthPlGP-41" style="edgeStyle=orthogonalEdgeStyle;rounded=1;orthogonalLoop=1;jettySize=auto;html=1;entryX=0.5;entryY=1;entryDx=0;entryDy=0;exitX=0.75;exitY=0;exitDx=0;exitDy=0;jumpStyle=arc;curved=0;" edge="1" parent="1" source="qUcSNbE8Fe3txcthPlGP-26" target="qUcSNbE8Fe3txcthPlGP-38">
          <mxGeometry relative="1" as="geometry">
            <Array as="points">
              <mxPoint x="475" y="570" />
              <mxPoint x="680" y="570" />
            </Array>
          </mxGeometry>
        </mxCell>
        <mxCell id="qUcSNbE8Fe3txcthPlGP-50" style="edgeStyle=orthogonalEdgeStyle;rounded=1;orthogonalLoop=1;jettySize=auto;html=1;entryX=0.25;entryY=1;entryDx=0;entryDy=0;exitX=0.75;exitY=1;exitDx=0;exitDy=0;curved=0;jumpStyle=arc;" edge="1" parent="1" source="qUcSNbE8Fe3txcthPlGP-26" target="qUcSNbE8Fe3txcthPlGP-47">
          <mxGeometry relative="1" as="geometry">
            <Array as="points">
              <mxPoint x="475" y="670" />
              <mxPoint x="815" y="670" />
            </Array>
          </mxGeometry>
        </mxCell>
        <mxCell id="qUcSNbE8Fe3txcthPlGP-57" style="edgeStyle=orthogonalEdgeStyle;rounded=1;orthogonalLoop=1;jettySize=auto;html=1;exitX=0.5;exitY=1;exitDx=0;exitDy=0;entryX=0;entryY=0.75;entryDx=0;entryDy=0;curved=0;jumpStyle=arc;" edge="1" parent="1" source="qUcSNbE8Fe3txcthPlGP-26" target="qUcSNbE8Fe3txcthPlGP-53">
          <mxGeometry relative="1" as="geometry">
            <Array as="points">
              <mxPoint x="450" y="730" />
              <mxPoint x="920" y="730" />
              <mxPoint x="920" y="483" />
            </Array>
          </mxGeometry>
        </mxCell>
        <mxCell id="qUcSNbE8Fe3txcthPlGP-67" style="edgeStyle=orthogonalEdgeStyle;rounded=1;orthogonalLoop=1;jettySize=auto;html=1;entryX=0.25;entryY=1;entryDx=0;entryDy=0;exitX=0.5;exitY=0;exitDx=0;exitDy=0;curved=0;jumpStyle=arc;" edge="1" parent="1" source="qUcSNbE8Fe3txcthPlGP-26" target="qUcSNbE8Fe3txcthPlGP-32">
          <mxGeometry relative="1" as="geometry">
            <Array as="points">
              <mxPoint x="460" y="605" />
              <mxPoint x="460" y="520" />
              <mxPoint x="535" y="520" />
            </Array>
          </mxGeometry>
        </mxCell>
        <mxCell id="qUcSNbE8Fe3txcthPlGP-26" value="booking store" style="html=1;dashed=0;whiteSpace=wrap;shape=partialRectangle;right=0;sketch=1;curveFitting=1;jiggle=2;" vertex="1" parent="1">
          <mxGeometry x="400" y="605" width="100" height="30" as="geometry" />
        </mxCell>
        <mxCell id="qUcSNbE8Fe3txcthPlGP-54" value="notify for&lt;div&gt;confirmed&lt;/div&gt;&lt;div&gt;booking&lt;/div&gt;" style="edgeStyle=orthogonalEdgeStyle;rounded=1;orthogonalLoop=1;jettySize=auto;html=1;entryX=0.25;entryY=0;entryDx=0;entryDy=0;exitX=1;exitY=0.75;exitDx=0;exitDy=0;curved=0;" edge="1" parent="1" source="qUcSNbE8Fe3txcthPlGP-31" target="qUcSNbE8Fe3txcthPlGP-53">
          <mxGeometry relative="1" as="geometry" />
        </mxCell>
        <mxCell id="qUcSNbE8Fe3txcthPlGP-55" value="notify for&lt;div&gt;cancelled&lt;/div&gt;&lt;div&gt;booking&lt;/div&gt;" style="edgeStyle=orthogonalEdgeStyle;rounded=1;orthogonalLoop=1;jettySize=auto;html=1;curved=0;" edge="1" parent="1" source="qUcSNbE8Fe3txcthPlGP-31" target="qUcSNbE8Fe3txcthPlGP-53">
          <mxGeometry x="-0.2759" relative="1" as="geometry">
            <mxPoint as="offset" />
          </mxGeometry>
        </mxCell>
        <mxCell id="qUcSNbE8Fe3txcthPlGP-56" value="notify for&amp;nbsp;&lt;div&gt;booking&lt;/div&gt;&lt;div&gt;status&lt;/div&gt;" style="edgeStyle=orthogonalEdgeStyle;rounded=1;orthogonalLoop=1;jettySize=auto;html=1;entryX=0.75;entryY=0;entryDx=0;entryDy=0;exitX=1;exitY=0.25;exitDx=0;exitDy=0;curved=0;" edge="1" parent="1" source="qUcSNbE8Fe3txcthPlGP-31" target="qUcSNbE8Fe3txcthPlGP-53">
          <mxGeometry x="0.1212" relative="1" as="geometry">
            <mxPoint as="offset" />
          </mxGeometry>
        </mxCell>
        <mxCell id="qUcSNbE8Fe3txcthPlGP-58" value="manage and&lt;div&gt;monitor users&lt;/div&gt;" style="edgeStyle=orthogonalEdgeStyle;rounded=1;orthogonalLoop=1;jettySize=auto;html=1;entryX=0;entryY=0.5;entryDx=0;entryDy=0;exitX=0;exitY=0.75;exitDx=0;exitDy=0;curved=0;" edge="1" parent="1" source="qUcSNbE8Fe3txcthPlGP-31" target="qUcSNbE8Fe3txcthPlGP-47">
          <mxGeometry relative="1" as="geometry" />
        </mxCell>
        <mxCell id="qUcSNbE8Fe3txcthPlGP-59" style="edgeStyle=orthogonalEdgeStyle;rounded=1;orthogonalLoop=1;jettySize=auto;html=1;entryX=0.25;entryY=0;entryDx=0;entryDy=0;exitX=0.25;exitY=1;exitDx=0;exitDy=0;curved=0;" edge="1" parent="1" source="qUcSNbE8Fe3txcthPlGP-31" target="qUcSNbE8Fe3txcthPlGP-47">
          <mxGeometry relative="1" as="geometry" />
        </mxCell>
        <mxCell id="qUcSNbE8Fe3txcthPlGP-60" value="manage and&lt;div&gt;monitor property&lt;/div&gt;&lt;div&gt;listings&lt;/div&gt;" style="edgeLabel;html=1;align=center;verticalAlign=middle;resizable=0;points=[];" vertex="1" connectable="0" parent="qUcSNbE8Fe3txcthPlGP-59">
          <mxGeometry x="-0.2615" y="1" relative="1" as="geometry">
            <mxPoint as="offset" />
          </mxGeometry>
        </mxCell>
        <mxCell id="qUcSNbE8Fe3txcthPlGP-61" value="manage and&lt;div&gt;monitor bookings&lt;/div&gt;" style="edgeStyle=orthogonalEdgeStyle;rounded=1;orthogonalLoop=1;jettySize=auto;html=1;entryX=0.75;entryY=0;entryDx=0;entryDy=0;exitX=0.75;exitY=1;exitDx=0;exitDy=0;curved=0;" edge="1" parent="1" source="qUcSNbE8Fe3txcthPlGP-31" target="qUcSNbE8Fe3txcthPlGP-47">
          <mxGeometry x="-0.7436" relative="1" as="geometry">
            <mxPoint as="offset" />
          </mxGeometry>
        </mxCell>
        <mxCell id="qUcSNbE8Fe3txcthPlGP-62" style="edgeStyle=orthogonalEdgeStyle;rounded=1;orthogonalLoop=1;jettySize=auto;html=1;entryX=1;entryY=0.5;entryDx=0;entryDy=0;exitX=1;exitY=1;exitDx=0;exitDy=0;curved=0;" edge="1" parent="1" source="qUcSNbE8Fe3txcthPlGP-31" target="qUcSNbE8Fe3txcthPlGP-47">
          <mxGeometry relative="1" as="geometry">
            <Array as="points">
              <mxPoint x="920" y="255" />
              <mxPoint x="920" y="470" />
            </Array>
          </mxGeometry>
        </mxCell>
        <mxCell id="qUcSNbE8Fe3txcthPlGP-63" value="manage and&lt;div&gt;monitor pyament&lt;/div&gt;" style="edgeLabel;html=1;align=center;verticalAlign=middle;resizable=0;points=[];" vertex="1" connectable="0" parent="qUcSNbE8Fe3txcthPlGP-62">
          <mxGeometry x="-0.3057" y="3" relative="1" as="geometry">
            <mxPoint x="-3" y="23" as="offset" />
          </mxGeometry>
        </mxCell>
        <mxCell id="qUcSNbE8Fe3txcthPlGP-31" value="Admin" style="rounded=1;whiteSpace=wrap;html=1;sketch=1;curveFitting=1;jiggle=2;" vertex="1" parent="1">
          <mxGeometry x="780" y="195" width="120" height="60" as="geometry" />
        </mxCell>
        <mxCell id="qUcSNbE8Fe3txcthPlGP-32" value="payment management process" style="html=1;dashed=0;whiteSpace=wrap;sketch=1;curveFitting=1;jiggle=2;" vertex="1" parent="1">
          <mxGeometry x="510" y="445" width="100" height="50" as="geometry" />
        </mxCell>
        <mxCell id="qUcSNbE8Fe3txcthPlGP-34" style="edgeStyle=orthogonalEdgeStyle;rounded=1;orthogonalLoop=1;jettySize=auto;html=1;jumpStyle=arc;curved=0;" edge="1" parent="1" source="qUcSNbE8Fe3txcthPlGP-33" target="qUcSNbE8Fe3txcthPlGP-32">
          <mxGeometry relative="1" as="geometry" />
        </mxCell>
        <mxCell id="qUcSNbE8Fe3txcthPlGP-51" style="edgeStyle=orthogonalEdgeStyle;rounded=1;orthogonalLoop=1;jettySize=auto;html=1;entryX=0;entryY=1;entryDx=0;entryDy=0;jumpStyle=arc;curved=0;exitX=0.5;exitY=1;exitDx=0;exitDy=0;" edge="1" parent="1" source="qUcSNbE8Fe3txcthPlGP-33" target="qUcSNbE8Fe3txcthPlGP-47">
          <mxGeometry relative="1" as="geometry">
            <Array as="points">
              <mxPoint x="580" y="660" />
              <mxPoint x="790" y="660" />
            </Array>
          </mxGeometry>
        </mxCell>
        <mxCell id="qUcSNbE8Fe3txcthPlGP-33" value="payment store" style="html=1;dashed=0;whiteSpace=wrap;shape=partialRectangle;right=0;sketch=1;curveFitting=1;jiggle=2;" vertex="1" parent="1">
          <mxGeometry x="530" y="605" width="100" height="30" as="geometry" />
        </mxCell>
        <mxCell id="qUcSNbE8Fe3txcthPlGP-38" value="review and ratings process" style="html=1;dashed=0;whiteSpace=wrap;sketch=1;curveFitting=1;jiggle=2;" vertex="1" parent="1">
          <mxGeometry x="630" y="445" width="100" height="50" as="geometry" />
        </mxCell>
        <mxCell id="qUcSNbE8Fe3txcthPlGP-40" style="edgeStyle=orthogonalEdgeStyle;rounded=1;orthogonalLoop=1;jettySize=auto;html=1;entryX=0.75;entryY=1;entryDx=0;entryDy=0;exitX=0.75;exitY=0;exitDx=0;exitDy=0;curved=0;jumpStyle=arc;" edge="1" parent="1" source="qUcSNbE8Fe3txcthPlGP-39" target="qUcSNbE8Fe3txcthPlGP-38">
          <mxGeometry relative="1" as="geometry" />
        </mxCell>
        <mxCell id="qUcSNbE8Fe3txcthPlGP-39" value="review store" style="html=1;dashed=0;whiteSpace=wrap;shape=partialRectangle;right=0;sketch=1;curveFitting=1;jiggle=2;" vertex="1" parent="1">
          <mxGeometry x="660" y="605" width="100" height="30" as="geometry" />
        </mxCell>
        <mxCell id="qUcSNbE8Fe3txcthPlGP-47" value="admin process" style="html=1;dashed=0;whiteSpace=wrap;sketch=1;curveFitting=1;jiggle=2;" vertex="1" parent="1">
          <mxGeometry x="790" y="445" width="100" height="50" as="geometry" />
        </mxCell>
        <mxCell id="qUcSNbE8Fe3txcthPlGP-53" value="notification process" style="html=1;dashed=0;whiteSpace=wrap;sketch=1;curveFitting=1;jiggle=2;" vertex="1" parent="1">
          <mxGeometry x="940" y="445" width="100" height="50" as="geometry" />
        </mxCell>
        <mxCell id="qUcSNbE8Fe3txcthPlGP-69" style="edgeStyle=orthogonalEdgeStyle;rounded=1;orthogonalLoop=1;jettySize=auto;html=1;entryX=0.5;entryY=1;entryDx=0;entryDy=0;curved=0;jumpStyle=arc;" edge="1" parent="1" source="qUcSNbE8Fe3txcthPlGP-66" target="qUcSNbE8Fe3txcthPlGP-53">
          <mxGeometry relative="1" as="geometry" />
        </mxCell>
        <mxCell id="qUcSNbE8Fe3txcthPlGP-66" value="message store" style="html=1;dashed=0;whiteSpace=wrap;shape=partialRectangle;right=0;sketch=1;curveFitting=1;jiggle=2;" vertex="1" parent="1">
          <mxGeometry x="980" y="605" width="100" height="30" as="geometry" />
        </mxCell>
        <mxCell id="qUcSNbE8Fe3txcthPlGP-73" value="&lt;font style=&quot;font-size: 30px;&quot;&gt;AirBnb Data Flow Diagram&lt;/font&gt;" style="shape=process;whiteSpace=wrap;html=1;backgroundOutline=1;sketch=1;curveFitting=1;jiggle=2;size=0.05333333333333334;" vertex="1" parent="1">
          <mxGeometry x="190" y="40" width="750" height="60" as="geometry" />
        </mxCell>
      </root>
    </mxGraphModel>
  </diagram>
</mxfile>
